<svg xmlns="http://www.w3.org/2000/svg" width="27.969" height="27.969" viewBox="0 0 27.969 27.969"><defs><style>.a{isolation:isolate;}.b{fill:#186076;}</style></defs><g class="a" transform="translate(0 -0.001)"><g transform="translate(0 0.001)"><path class="b" d="M26.537,11.049l-1.963-.333a11.085,11.085,0,0,0-.789-1.9l1.157-1.618a1.723,1.723,0,0,0-.187-2.226L23.014,3.226a1.715,1.715,0,0,0-1.221-.508,1.7,1.7,0,0,0-1,.321L19.17,4.2a10.97,10.97,0,0,0-1.975-.812l-.327-1.94A1.726,1.726,0,0,0,15.162,0H12.7A1.726,1.726,0,0,0,11,1.444l-.339,1.986a10.812,10.812,0,0,0-1.9.8L7.151,3.074a1.726,1.726,0,0,0-2.226.187L3.178,5a1.73,1.73,0,0,0-.187,2.226L4.16,8.87a10.827,10.827,0,0,0-.777,1.911l-1.94.327A1.726,1.726,0,0,0,0,12.814v2.46A1.726,1.726,0,0,0,1.443,16.98l1.986.339a10.812,10.812,0,0,0,.8,1.9l-1.151,1.6a1.723,1.723,0,0,0,.187,2.226l1.741,1.741a1.715,1.715,0,0,0,1.221.508,1.7,1.7,0,0,0,1-.321L8.869,23.8a11.053,11.053,0,0,0,1.846.76l.327,1.963a1.726,1.726,0,0,0,1.706,1.443h2.466a1.726,1.726,0,0,0,1.706-1.443l.333-1.963a11.085,11.085,0,0,0,1.9-.789l1.618,1.157a1.715,1.715,0,0,0,1,.321h0A1.715,1.715,0,0,0,23,24.744L24.743,23a1.73,1.73,0,0,0,.187-2.226l-1.157-1.624a11.005,11.005,0,0,0,.789-1.9l1.963-.327a1.726,1.726,0,0,0,1.443-1.706v-2.46A1.705,1.705,0,0,0,26.537,11.049ZM26.4,15.215a.151.151,0,0,1-.129.152l-2.454.409a.784.784,0,0,0-.631.578A9.353,9.353,0,0,1,22.173,18.8a.79.79,0,0,0,.035.859l1.443,2.033a.159.159,0,0,1-.018.2l-1.741,1.741a.148.148,0,0,1-.111.047.144.144,0,0,1-.088-.029l-2.027-1.443a.789.789,0,0,0-.859-.035,9.353,9.353,0,0,1-2.448,1.017.775.775,0,0,0-.578.631l-.415,2.454a.151.151,0,0,1-.152.129h-2.46a.151.151,0,0,1-.152-.129l-.409-2.454a.784.784,0,0,0-.578-.631,9.712,9.712,0,0,1-2.4-.982.809.809,0,0,0-.4-.105.769.769,0,0,0-.456.146L6.322,23.7a.174.174,0,0,1-.088.029.157.157,0,0,1-.111-.047L4.382,21.946a.158.158,0,0,1-.018-.2L5.8,19.731a.8.8,0,0,0,.035-.865,9.265,9.265,0,0,1-1.028-2.442.8.8,0,0,0-.631-.578l-2.471-.421a.151.151,0,0,1-.129-.152v-2.46a.151.151,0,0,1,.129-.152l2.436-.409a.79.79,0,0,0,.637-.584,9.344,9.344,0,0,1,1-2.454.78.78,0,0,0-.041-.853L4.283,6.317a.159.159,0,0,1,.018-.2L6.041,4.377a.148.148,0,0,1,.111-.047.144.144,0,0,1,.088.029L8.256,5.8a.8.8,0,0,0,.865.035A9.265,9.265,0,0,1,11.563,4.8a.8.8,0,0,0,.578-.631L12.562,1.7a.151.151,0,0,1,.152-.129h2.46a.151.151,0,0,1,.152.129l.409,2.436a.79.79,0,0,0,.584.637A9.483,9.483,0,0,1,18.825,5.8a.79.79,0,0,0,.859-.035L21.7,4.319a.174.174,0,0,1,.088-.029.157.157,0,0,1,.111.047l1.741,1.741a.158.158,0,0,1,.018.2L22.214,8.3a.789.789,0,0,0-.035.859A9.353,9.353,0,0,1,23.2,11.61a.775.775,0,0,0,.631.578l2.454.415a.151.151,0,0,1,.129.152v2.46Z" transform="translate(0 -0.001)"/><path class="b" d="M143.245,136a7.145,7.145,0,1,0,7.145,7.145A7.149,7.149,0,0,0,143.245,136Zm0,12.422a5.277,5.277,0,1,1,5.277-5.277A5.281,5.281,0,0,1,143.245,148.423Z" transform="translate(-129.258 -129.164)"/></g></g></svg>