<svg xmlns="http://www.w3.org/2000/svg" width="22" height="22" viewBox="0 0 22 22"><defs><style>.a{isolation:isolate;}.b{fill:#fff;}</style></defs><g class="a" transform="translate(0 -0.001)"><g transform="translate(0 0.001)"><path class="b" d="M20.874,8.692,19.33,8.43a8.72,8.72,0,0,0-.62-1.5l.91-1.273a1.355,1.355,0,0,0-.147-1.751L18.1,2.538a1.349,1.349,0,0,0-.961-.4,1.335,1.335,0,0,0-.786.253l-1.278.91a8.629,8.629,0,0,0-1.553-.639l-.257-1.526A1.358,1.358,0,0,0,11.926,0H9.991A1.358,1.358,0,0,0,8.649,1.136L8.383,2.7a8.5,8.5,0,0,0-1.494.63l-1.264-.91a1.357,1.357,0,0,0-1.751.147L2.5,3.935a1.36,1.36,0,0,0-.147,1.751l.919,1.291a8.517,8.517,0,0,0-.611,1.5l-1.526.257A1.358,1.358,0,0,0,0,10.08v1.935a1.358,1.358,0,0,0,1.135,1.342l1.563.267a8.5,8.5,0,0,0,.63,1.494l-.905,1.259a1.355,1.355,0,0,0,.147,1.751l1.37,1.37a1.349,1.349,0,0,0,.961.4,1.335,1.335,0,0,0,.786-.253l1.291-.919a8.694,8.694,0,0,0,1.452.6l.257,1.544A1.358,1.358,0,0,0,10.028,22h1.939a1.358,1.358,0,0,0,1.342-1.135l.262-1.544a8.719,8.719,0,0,0,1.5-.62l1.273.91a1.349,1.349,0,0,0,.79.253h0a1.349,1.349,0,0,0,.961-.4l1.37-1.37a1.36,1.36,0,0,0,.147-1.751l-.91-1.278a8.657,8.657,0,0,0,.62-1.5l1.544-.257A1.358,1.358,0,0,0,22,11.969V10.034A1.341,1.341,0,0,0,20.874,8.692Zm-.106,3.277a.119.119,0,0,1-.1.119l-1.93.322a.617.617,0,0,0-.5.455,7.357,7.357,0,0,1-.8,1.926.621.621,0,0,0,.028.676l1.135,1.6a.125.125,0,0,1-.014.156l-1.37,1.37a.117.117,0,0,1-.087.037.113.113,0,0,1-.069-.023L15.47,17.47a.621.621,0,0,0-.676-.028,7.357,7.357,0,0,1-1.926.8.61.61,0,0,0-.455.5l-.326,1.93a.119.119,0,0,1-.119.1H10.033a.119.119,0,0,1-.119-.1l-.322-1.93a.617.617,0,0,0-.455-.5,7.639,7.639,0,0,1-1.884-.772.636.636,0,0,0-.313-.083.605.605,0,0,0-.358.115L4.973,18.646a.137.137,0,0,1-.069.023.123.123,0,0,1-.087-.037l-1.37-1.37a.125.125,0,0,1-.014-.156l1.131-1.586a.629.629,0,0,0,.028-.68,7.288,7.288,0,0,1-.809-1.921.629.629,0,0,0-.5-.455l-1.944-.331a.119.119,0,0,1-.1-.119V10.08a.119.119,0,0,1,.1-.119l1.916-.322a.621.621,0,0,0,.5-.46,7.35,7.35,0,0,1,.786-1.93.614.614,0,0,0-.032-.671L3.369,4.969a.125.125,0,0,1,.014-.156l1.37-1.37a.117.117,0,0,1,.087-.037.113.113,0,0,1,.069.023L6.494,4.56a.629.629,0,0,0,.68.028A7.288,7.288,0,0,1,9.1,3.779a.629.629,0,0,0,.455-.5l.331-1.944a.119.119,0,0,1,.119-.1h1.935a.119.119,0,0,1,.119.1l.322,1.916a.621.621,0,0,0,.46.5,7.46,7.46,0,0,1,1.972.809.621.621,0,0,0,.676-.028L17.069,3.4a.137.137,0,0,1,.069-.023.123.123,0,0,1,.087.037l1.37,1.37a.125.125,0,0,1,.014.156L17.473,6.532a.621.621,0,0,0-.028.676,7.357,7.357,0,0,1,.8,1.926.61.61,0,0,0,.5.455l1.93.326a.119.119,0,0,1,.1.119v1.935Z" transform="translate(0 -0.001)"/><path class="b" d="M141.72,136a5.62,5.62,0,1,0,5.62,5.62A5.624,5.624,0,0,0,141.72,136Zm0,9.772a4.151,4.151,0,1,1,4.151-4.151A4.154,4.154,0,0,1,141.72,145.773Z" transform="translate(-130.718 -130.623)"/></g></g></svg>